<svg width="625" height="210" viewBox="0 0 625 210" fill="none" xmlns="http://www.w3.org/2000/svg">
<g clip-path="url(#clip0_1408_18)">
<rect width="625" height="210" fill="#4465F0"/>
<rect x="-28.202" y="-1.10156" width="55.1342" height="36.1302" transform="rotate(-3.79398 -28.202 -1.10156)" fill="#10A958" stroke="#11193C" stroke-width="1.5"/>
<path d="M-3.50372 192.472L-3.50372 192.472C-3.00695 187.534 0.0273643 183.656 3.8075 182.039C7.32098 180.54 11.4139 181.031 14.5368 184.271L14.9587 184.709L15.4744 184.386C19.2921 182 23.382 182.515 26.4254 184.823C29.6992 187.306 31.7 191.805 30.9812 196.716C30.2296 201.847 26.0558 205.974 21.5668 208.817C19.3404 210.227 17.0805 211.291 15.2189 211.981C14.288 212.326 13.4659 212.574 12.805 212.725C12.1186 212.882 11.6807 212.915 11.4806 212.891C11.2804 212.866 10.8638 212.727 10.236 212.409C9.63143 212.102 8.89415 211.663 8.0749 211.102C6.43667 209.982 4.50308 208.401 2.68605 206.493C-0.977702 202.647 -4.02293 197.631 -3.50372 192.472Z" fill="#F14F1E" stroke="#11193C" stroke-width="1.5"/>
<path d="M625.441 25.865C624.957 26.622 624.508 27.3128 624.174 27.8154C624.106 27.9183 624.043 28.0128 623.986 28.0979C623.982 28.0958 623.978 28.0937 623.975 28.0916C623.624 27.8844 623.149 27.5908 622.633 27.2613L622.229 27.8936L622.633 27.2613C619.055 24.9725 616.626 23.4255 615.083 22.454C614.312 21.9686 613.758 21.6245 613.39 21.4027C613.208 21.2926 613.065 21.2083 612.961 21.1511C612.911 21.1236 612.859 21.0954 612.81 21.0728C612.788 21.0626 612.747 21.0444 612.699 21.0285C612.676 21.0209 612.63 21.0067 612.57 20.9976L612.568 20.9972C612.533 20.9918 612.367 20.966 612.176 21.0415C611.995 21.1132 611.893 21.2358 611.87 21.2641L611.869 21.2651C611.831 21.3111 611.805 21.3526 611.793 21.3746C611.766 21.4204 611.747 21.4628 611.736 21.4872C611.713 21.5406 611.691 21.6008 611.672 21.6567C611.632 21.7727 611.583 21.9279 611.53 22.1067C611.424 22.4669 611.29 22.9535 611.154 23.4809C611.154 23.4809 611.154 23.481 611.154 23.481L609.419 30.2047L608.361 34.3062L606.029 33.707L606.029 33.707C605.19 33.4913 604.402 33.2864 603.81 33.1303C603.601 33.0752 603.417 33.0263 603.264 32.9853C603.327 32.6972 603.438 32.2561 603.615 31.5706C603.615 31.5705 603.615 31.5705 603.615 31.5705L604.502 28.1354C604.691 27.4058 605.223 25.3481 605.686 23.5629C605.918 22.6675 606.126 21.8421 606.274 21.2331C606.347 20.9292 606.407 20.6756 606.447 20.4929C606.467 20.4026 606.484 20.323 606.495 20.2609C606.5 20.2314 606.507 20.1951 606.511 20.1592C606.513 20.1426 606.517 20.1121 606.518 20.076C606.519 20.0582 606.519 20.0268 606.516 19.9884C606.514 19.9629 606.507 19.8725 606.466 19.7663C606.386 19.5631 606.243 19.4564 606.183 19.4162C606.114 19.37 606.052 19.3455 606.02 19.3342C605.956 19.311 605.903 19.3015 605.883 19.2982C605.836 19.2902 605.794 19.2874 605.774 19.2862C605.726 19.2834 605.672 19.2827 605.621 19.2827C605.515 19.2828 605.367 19.2859 605.188 19.2915C604.827 19.3028 604.312 19.3247 603.683 19.3552C602.423 19.4162 600.692 19.5123 598.793 19.6287C596.897 19.7449 595.169 19.8484 593.913 19.9215C593.372 19.9529 592.919 19.9787 592.578 19.9975C592.57 19.9013 592.563 19.7969 592.555 19.6855C592.509 19.0678 592.454 18.2434 592.401 17.4154C592.348 16.5874 592.298 15.7579 592.263 15.1302C592.256 14.9897 592.249 14.8598 592.243 14.7426C593.386 14.6802 596.328 14.4972 599.129 14.3179C600.719 14.2161 602.268 14.1152 603.426 14.0376C604.004 13.9989 604.485 13.9659 604.825 13.9416C604.995 13.9294 605.131 13.9193 605.227 13.9116C605.274 13.9078 605.315 13.9044 605.346 13.9014C605.361 13.8999 605.378 13.8982 605.395 13.8961C605.399 13.8956 605.404 13.8949 605.411 13.8941C605.418 13.8931 605.426 13.8919 605.434 13.8905C605.442 13.8892 605.457 13.8866 605.475 13.8827C605.484 13.8807 605.533 13.8704 605.592 13.8472C606.006 13.6835 606.059 13.2843 606.064 13.2449L606.064 13.243C606.077 13.1458 606.069 13.0662 606.066 13.0367C606.058 12.9657 606.042 12.8994 606.031 12.8579C606.007 12.7648 605.97 12.6463 605.925 12.512C605.833 12.2379 605.687 11.8354 605.487 11.3017C605.086 10.2312 604.454 8.60232 603.566 6.34855L601.289 0.562484L603.733 -0.403396L606.177 -1.36928L608.455 4.41679C609.339 6.66264 609.987 8.28523 610.423 9.3441C610.641 9.87215 610.809 10.2674 610.929 10.5317C610.988 10.6612 611.042 10.7736 611.087 10.8581C611.108 10.8958 611.141 10.9548 611.183 11.0118C611.2 11.0354 611.248 11.0988 611.323 11.1605C611.36 11.1913 611.437 11.249 611.549 11.2895C611.668 11.3327 611.865 11.3681 612.083 11.282C612.156 11.2531 612.211 11.2173 612.212 11.2164C612.228 11.2061 612.242 11.1969 612.25 11.1914C612.266 11.18 612.282 11.1681 612.295 11.1585C612.321 11.1385 612.355 11.1126 612.392 11.0831C612.468 11.0235 612.574 10.9388 612.705 10.8331C612.968 10.6211 613.34 10.3182 613.794 9.9474C614.701 9.20547 615.938 8.18835 617.285 7.07495C617.61 6.80693 617.915 6.55412 618.204 6.31564C620.609 4.32792 621.808 3.33645 622.411 2.84568C622.426 2.83343 622.441 2.82153 622.455 2.80997C622.53 2.89933 622.613 2.99853 622.702 3.10593C623.104 3.58825 623.631 4.22869 624.156 4.86987C624.681 5.51106 625.201 6.15134 625.589 6.63334C625.658 6.71999 625.724 6.80126 625.783 6.87629C625.521 7.09592 625.173 7.38657 624.757 7.73302C623.789 8.53914 622.455 9.64536 620.991 10.857C619.524 12.0704 618.194 13.1845 617.231 14.0024C616.751 14.4109 616.359 14.7476 616.088 14.9865C615.953 15.1052 615.843 15.2042 615.765 15.2774C615.728 15.3125 615.688 15.3505 615.655 15.3856C615.641 15.4006 615.612 15.4319 615.583 15.4711C615.57 15.4877 615.537 15.5323 615.506 15.5944C615.491 15.625 615.463 15.6858 615.445 15.7674C615.429 15.8397 615.401 16.0105 615.479 16.2079C615.519 16.3112 615.574 16.381 615.591 16.4034C615.616 16.4348 615.639 16.4589 615.653 16.4734C615.682 16.5026 615.71 16.5266 615.728 16.5421C615.767 16.5746 615.811 16.6084 615.853 16.6397C615.939 16.704 616.055 16.7851 616.188 16.8756C616.455 17.0579 616.814 17.2937 617.202 17.54C617.967 18.0262 619.384 18.9285 620.351 19.5451L620.351 19.5451C621.319 20.1622 623.319 21.4342 624.795 22.3719M625.441 25.865L626.072 26.2689M625.441 25.865L626.072 26.2689M625.441 25.865C625.994 24.9991 626.501 24.2066 626.835 23.6839C626.785 23.6511 626.732 23.6165 626.677 23.5802C626.198 23.2676 625.532 22.8395 624.795 22.3719M626.072 26.2689C627.043 24.7499 627.847 23.4926 627.859 23.4749C627.864 23.4687 627.72 23.369 627.468 23.2018L627.859 23.4749L627.417 23.168L626.072 26.2689ZM624.795 22.3719L625.197 21.7382M624.795 22.3719L625.197 21.7382M625.197 21.7382C626.018 22.2591 626.752 22.7318 627.24 23.0521M625.197 21.7382C623.721 20.8007 621.722 19.5289 620.754 18.9122L627.24 23.0521M627.24 23.0521C627.233 23.0637 627.225 23.0752 627.218 23.0867C627.229 23.0704 627.236 23.0588 627.241 23.0522C627.241 23.0522 627.241 23.0522 627.24 23.0521ZM603.198 33.3654C603.198 33.3654 603.198 33.3648 603.198 33.3636L603.198 33.3654Z" fill="#F14F1E" stroke="#11193C" stroke-width="1.5"/>
<path d="M599.818 190.614L599.351 190.081L599.818 190.614C603.999 186.945 607.837 183.611 610.653 181.194C612.061 179.986 613.212 179.008 614.021 178.334C614.392 178.025 614.688 177.782 614.903 177.611C614.978 177.676 615.063 177.754 615.159 177.844C615.518 178.184 615.962 178.651 616.395 179.137C616.827 179.624 617.235 180.117 617.524 180.507C617.589 180.595 617.646 180.675 617.695 180.745C617.475 180.954 617.159 181.246 616.759 181.611C615.925 182.374 614.735 183.445 613.307 184.722C610.45 187.276 606.645 190.647 602.832 194.007C599.018 197.368 595.198 200.716 592.311 203.223C590.868 204.477 589.659 205.52 588.802 206.248C588.429 206.565 588.125 206.82 587.898 207.006C587.835 206.943 587.766 206.872 587.691 206.794C587.323 206.412 586.854 205.894 586.392 205.365C585.93 204.836 585.483 204.304 585.159 203.896C585.105 203.827 585.055 203.763 585.01 203.704C585.205 203.527 585.461 203.296 585.774 203.015C586.553 202.317 587.676 201.317 589.06 200.091C591.828 197.639 595.637 194.283 599.818 190.614ZM578.307 196.261C578.501 196.076 578.768 195.827 579.103 195.518C579.875 194.809 580.992 193.798 582.374 192.559C585.138 190.082 588.951 186.7 593.146 183.012C597.34 179.324 601.185 175.979 603.999 173.56C605.406 172.35 606.554 171.373 607.358 170.702C607.696 170.421 607.97 170.195 608.176 170.03C608.246 170.096 608.324 170.172 608.408 170.257C608.762 170.612 609.205 171.089 609.639 171.579C610.074 172.07 610.492 172.565 610.799 172.955C610.868 173.043 610.93 173.124 610.984 173.196C610.774 173.4 610.48 173.676 610.111 174.018C609.29 174.777 608.114 175.841 606.698 177.109C603.866 179.644 600.082 182.987 596.28 186.32C592.478 189.652 588.659 192.973 585.757 195.463C584.305 196.709 583.085 197.745 582.211 198.471C581.774 198.835 581.428 199.117 581.185 199.307C581.179 199.311 581.174 199.315 581.169 199.32C581.096 199.261 581.013 199.19 580.92 199.107C580.563 198.789 580.117 198.346 579.678 197.877C579.238 197.407 578.819 196.927 578.515 196.537C578.435 196.435 578.365 196.342 578.307 196.261ZM607.871 169.763C607.872 169.763 607.872 169.763 607.872 169.763C607.854 169.753 607.853 169.75 607.871 169.763ZM578.116 195.961C578.116 195.96 578.116 195.96 578.115 195.959C578.111 195.948 578.112 195.949 578.116 195.961ZM592.177 210.797C592.706 210.281 599.585 204.206 607.49 197.276C611.433 193.819 615.049 190.676 617.697 188.399C619.022 187.26 620.102 186.339 620.861 185.703C621.171 185.443 621.426 185.232 621.619 185.075C621.681 185.133 621.749 185.199 621.823 185.273C622.176 185.623 622.622 186.101 623.062 186.597C623.503 187.092 623.928 187.595 624.239 187.993C624.311 188.084 624.375 188.168 624.431 188.243C624.218 188.446 623.923 188.72 623.553 189.059C622.726 189.818 621.541 190.886 620.115 192.161C617.263 194.71 613.457 198.079 609.637 201.438C605.818 204.797 601.987 208.145 599.089 210.653C597.639 211.907 596.424 212.949 595.561 213.677C595.172 214.006 594.857 214.268 594.626 214.455C594.563 214.396 594.494 214.329 594.418 214.254C594.05 213.89 593.569 213.382 593.068 212.818L591.692 211.27L592.177 210.797ZM611.166 173.298C611.166 173.298 611.166 173.298 611.166 173.298L611.166 173.298ZM598.476 218.816C598.67 218.63 598.939 218.379 599.276 218.068C600.048 217.357 601.165 216.346 602.547 215.106C605.311 212.628 609.123 209.246 613.318 205.558C617.513 201.871 621.357 198.526 624.171 196.107C625.579 194.898 626.726 193.922 627.531 193.251C627.868 192.969 628.142 192.744 628.348 192.579C628.418 192.645 628.496 192.721 628.58 192.806C628.934 193.162 629.377 193.638 629.812 194.129C630.246 194.619 630.665 195.114 630.971 195.503C631.04 195.59 631.101 195.67 631.155 195.742C630.945 195.945 630.652 196.22 630.284 196.56C629.463 197.319 628.287 198.382 626.87 199.65C624.037 202.185 620.253 205.529 616.45 208.863C612.648 212.197 608.828 215.52 605.925 218.014C604.473 219.261 603.253 220.299 602.379 221.027C601.941 221.391 601.595 221.674 601.351 221.866C601.345 221.871 601.339 221.876 601.332 221.88C601.261 221.823 601.179 221.753 601.088 221.672C600.732 221.356 600.287 220.913 599.848 220.443C599.41 219.973 598.992 219.491 598.688 219.1C598.606 218.995 598.535 218.899 598.476 218.816ZM628.043 192.311C628.034 192.306 628.029 192.302 628.029 192.302C628.029 192.302 628.034 192.305 628.043 192.311C628.043 192.311 628.043 192.311 628.043 192.311ZM598.29 218.52C598.29 218.519 598.29 218.519 598.289 218.518C598.287 218.513 598.286 218.511 598.286 218.511C598.287 218.511 598.288 218.514 598.29 218.52Z" fill="#FFC702" stroke="black" stroke-width="1.5"/>
</g>
<defs>
<clipPath id="clip0_1408_18">
<rect width="625" height="210" fill="white"/>
</clipPath>
</defs>
</svg>
